<?xml version="1.0" encoding="UTF-8" standalone="no"?>
<!-- Generator: Adobe Illustrator 19.1.0, SVG Export Plug-In . SVG Version: 6.00 Build 0)  -->

<svg
   xmlns:dc="http://purl.org/dc/elements/1.1/"
   xmlns:cc="http://creativecommons.org/ns#"
   xmlns:rdf="http://www.w3.org/1999/02/22-rdf-syntax-ns#"
   xmlns:svg="http://www.w3.org/2000/svg"
   xmlns="http://www.w3.org/2000/svg"
   xmlns:sodipodi="http://sodipodi.sourceforge.net/DTD/sodipodi-0.dtd"
   xmlns:inkscape="http://www.inkscape.org/namespaces/inkscape"
   version="1.1"
   id="Layer_1"
   x="0px"
   y="0px"
   viewBox="0 0 512 512"
   enable-background="new 0 0 960 560"
   xml:space="preserve"
   inkscape:version="0.91 r13725"
   sodipodi:docname="icon_QT.svg"
   width="512"
   height="512"><metadata
     id="metadata47"><rdf:RDF><cc:Work
         rdf:about=""><dc:format>image/svg+xml</dc:format><dc:type
           rdf:resource="http://purl.org/dc/dcmitype/StillImage" /><dc:title></dc:title></cc:Work></rdf:RDF></metadata><defs
     id="defs45" /><sodipodi:namedview
     pagecolor="#ffffff"
     bordercolor="#666666"
     borderopacity="1"
     objecttolerance="10"
     gridtolerance="10"
     guidetolerance="10"
     inkscape:pageopacity="0"
     inkscape:pageshadow="2"
     inkscape:window-width="1172"
     inkscape:window-height="978"
     id="namedview43"
     showgrid="false"
     inkscape:zoom="0.32291667"
     inkscape:cx="480"
     inkscape:cy="280"
     inkscape:window-x="0"
     inkscape:window-y="0"
     inkscape:window-maximized="0"
     inkscape:current-layer="Layer_1" /><g
     id="g3"
     transform="matrix(5.7142857,0,0,5.7142857,-2486.8571,-1344)"><g
       id="g5"><path
         d="m 522,315.1 c 0,3.8 -3.1,6.9 -6.9,6.9 l -70.2,0 c -3.8,0 -6.9,-3.1 -6.9,-6.9 l 0,-70.2 c 0,-3.8 3.1,-6.9 6.9,-6.9 l 70.2,0 c 3.8,0 6.9,3.1 6.9,6.9 l 0,70.2 z"
         id="path7"
         inkscape:connector-curvature="0"
         style="fill:#95c523" /></g></g><g
     id="g9"
     transform="matrix(5.7142857,0,0,5.7142857,-2486.8571,-1344)"><g
       id="g11"><path
         d="m 515.1,238 -70.2,0 c -3.8,0 -6.9,3.1 -6.9,6.9 l 0,0.7 c 0,-3.8 3.1,-6.9 6.9,-6.9 l 70.2,0 c 3.8,0 6.9,3.1 6.9,6.9 l 0,-0.7 c 0,-3.8 -3.1,-6.9 -6.9,-6.9 z"
         id="path13"
         inkscape:connector-curvature="0"
         style="fill:#e3edce" /></g></g><linearGradient
     id="SVGID_1_"
     gradientUnits="userSpaceOnUse"
     x1="461.31812"
     y1="261.03961"
     x2="507.9653"
     y2="307.6868"
     gradientTransform="matrix(5.7142857,0,0,5.7142857,-2486.8571,-1344)"><stop
       offset="0"
       style="stop-color:#6F9F15"
       id="stop16" /><stop
       offset="0.5371"
       style="stop-color:#81B21C"
       id="stop18" /><stop
       offset="1"
       style="stop-color:#95C523"
       id="stop20" /></linearGradient><path
     d="M 374.85714,132 C 131.42857,73.71429 91.42857,175.42857 133.14286,373.71429 L 256,496 456.57143,496 C 478.28571,496 496,478.28571 496,456.57143 L 496,253.14286 374.85714,132 Z"
     id="path22"
     style="fill:url(#SVGID_1_)"
     inkscape:connector-curvature="0" /><linearGradient
     id="SVGID_2_"
     gradientUnits="userSpaceOnUse"
     x1="499.078"
     y1="295.9628"
     x2="518.4317"
     y2="315.3165"
     gradientTransform="matrix(5.7142857,0,0,5.7142857,-2486.8571,-1344)"><stop
       offset="0"
       style="stop-color:#6F9F15"
       id="stop25" /><stop
       offset="0.5"
       style="stop-color:#81B21C"
       id="stop27" /><stop
       offset="1"
       style="stop-color:#95C523"
       id="stop29" /></linearGradient><path
     d="M 386.85714,321.71429 340,368.57143 465.71429,494.28571 C 483.42857,490.28571 496,474.28571 496,456 l 0,-25.14286 -109.14286,-109.14285 z"
     id="path31"
     style="fill:url(#SVGID_2_)"
     inkscape:connector-curvature="0" /><path
     d="M 496,456.57143 C 496,478.28571 478.28571,496 456.57143,496 L 55.42857,496 C 33.71429,496 16,478.28571 16,456.57143 L 16,55.42857 C 16,33.71429 33.71429,16 55.42857,16 l 401.14286,0 C 478.28571,16 496,33.71429 496,55.42857 l 0,401.14286 z"
     id="path33"
     inkscape:connector-curvature="0"
     style="fill:none" /><g
     id="g35"
     transform="matrix(5.7142857,0,0,5.7142857,-2486.8571,-1344)"><g
       id="g37"><path
         d="m 491.2,299.8 c -0.2,-0.2 -0.6,-0.3 -0.9,-0.1 -3.1,1.6 -6.6,2.5 -10.3,2.5 -12.4,0 -22.4,-10 -22.4,-22.4 0,-12.4 10,-22.4 22.4,-22.4 12.4,0 22.4,10 22.4,22.4 0,2.2 -0.3,4.3 -0.9,6.4 -0.1,0.3 0,0.6 0.2,0.8 l 4.6,4.6 c 0.2,0.2 0.4,0.3 0.7,0.2 0.3,0 0.5,-0.2 0.6,-0.5 1.5,-3.5 2.3,-7.4 2.3,-11.5 0,-16.5 -13.4,-29.9 -29.9,-29.9 -16.5,0 -29.9,13.4 -29.9,29.9 0,16.5 13.4,29.9 29.9,29.9 5.6,0 10.9,-1.6 15.4,-4.3 0.2,-0.1 0.3,-0.3 0.4,-0.6 0,-0.2 -0.1,-0.5 -0.2,-0.6 l -4.4,-4.4 z"
         id="path39"
         inkscape:connector-curvature="0"
         style="fill:#ffffff" /><path
         d="m 511.8,303.4 c 0,-0.2 -0.2,-0.4 -0.3,-0.5 -0.2,-0.1 -0.4,-0.1 -0.6,-0.1 -1.3,0.3 -2.7,0 -3.6,-1 l -3.7,-3.7 c 0.8,-1 1.4,-2 2.1,-3 0.2,-0.3 0.1,-0.7 -0.1,-0.9 l -2.7,-2.7 -1.6,-1.6 c -0.2,-0.2 -0.4,-0.3 -0.7,-0.2 -0.2,0 -0.5,0.2 -0.6,0.4 -0.5,1 -1.1,1.9 -1.7,2.8 l -3.4,-3.4 c -0.2,-0.2 -0.5,-0.3 -0.8,-0.2 -0.3,0.1 -0.5,0.3 -0.5,0.6 l -1.6,6.8 c -0.1,0.3 0,0.5 0.2,0.7 l 9.8,9.8 c 2.8,2.8 7.5,3.4 10.4,1 0.2,-0.2 0.3,-0.5 0.3,-0.7 l -0.9,-4.1 z"
         id="path41"
         inkscape:connector-curvature="0"
         style="fill:#ffffff" /></g></g></svg>